<?xml version="1.0" encoding="utf-8"?>
<!-- Generator: Adobe Illustrator 21.1.0, SVG Export Plug-In . SVG Version: 6.00 Build 0)  -->
<svg version="1.1" id="Layer_1" xmlns="http://www.w3.org/2000/svg" xmlns:xlink="http://www.w3.org/1999/xlink" x="0px" y="0px"
	 viewBox="0 0 512 512" style="enable-background:new 0 0 512 512;" xml:space="preserve">
<path d="M418.2,443.4c-25,0-46.7-17.7-51.6-42.2l-1-4.9h-27.8l-0.4,0.1c-0.5,0.1-1.1,0.1-1.5,0.1H154.5l-1,4.9
	c-5,24.3-26.8,42-51.6,42s-46.6-17.7-51.6-42l-1-4.9h-40c-5.1,0-9.2-4.1-9.2-9.2V76.8c0-5.1,4.1-9.2,9.2-9.2h326.7
	c5.1,0,9.2,4.1,9.2,9.2v68.5l5.6,0.5c35.9,3.2,65.9,22.3,84.6,53.6l31.9,53.5l3.4,0c22.9,0.3,41.4,19.1,41.4,42v92.2
	c0,5.1-4.1,9.2-9.2,9.2h-32l-1,4.9C464.9,425.7,443.2,443.4,418.2,443.4z M418.3,356.4c-18.9,0-34.3,15.4-34.3,34.3
	s15.4,34.3,34.3,34.3c18.9,0,34.3-15.4,34.3-34.3S437.2,356.4,418.3,356.4z M101.9,356.4c-18.9,0-34.3,15.4-34.3,34.3
	S83,425,101.9,425s34.3-15.4,34.3-34.3S120.8,356.4,101.9,356.4z M101.9,337.9c22.6,0,42.7,14.5,50,36l1.4,4.2h173.4V86H18.4v292
	h32.1l1.4-4.2C59.2,352.4,79.3,337.9,101.9,337.9z M418.3,337.9c22.6,0,42.6,14.4,49.9,35.8l1.4,4.2h24v-82.9
	c0-13-10.6-23.6-23.6-23.6h-76.8c-5.1,0-9.2-4.1-9.2-9.2s4.1-9.2,9.2-9.2h52.5l-26.3-44.1c-15.1-25.3-39-41-67.4-44.3l-6.8-0.8
	v214.2H367l1.4-4.2C375.7,352.3,395.7,337.9,418.3,337.9z"/>
</svg>
